<?xml version="1.0" standalone="no"?>
<!DOCTYPE svg PUBLIC "-//W3C//DTD SVG 20010904//EN"
 "http://www.w3.org/TR/2001/REC-SVG-20010904/DTD/svg10.dtd">
<svg version="1.0" xmlns="http://www.w3.org/2000/svg"
 width="600.000000pt" height="600.000000pt" viewBox="0 0 600.000000 600.000000"
 preserveAspectRatio="xMidYMid meet">
<metadata>
Created by potrace 1.14, written by Peter Selinger 2001-2017
</metadata>
<g transform="translate(0.000000,600.000000) scale(0.100000,-0.100000)"
fill="#000000" stroke="none">
<path d="M2750 5823 c-120 -9 -347 -48 -483 -82 -351 -90 -703 -257 -983 -467
-358 -269 -639 -601 -835 -987 -151 -298 -238 -574 -291 -922 -18 -123 -18
-627 0 -750 51 -340 134 -607 278 -895 301 -601 803 -1076 1416 -1339 802
-344 1737 -299 2494 120 245 136 437 281 639 484 318 318 544 681 685 1105
277 830 157 1739 -327 2473 -142 216 -386 483 -583 641 -513 410 -1148 630
-1795 624 -93 -1 -190 -3 -215 -5z m-696 -1084 c40 -48 34 -70 -34 -131 -33
-29 -60 -56 -60 -59 0 -6 81 -97 341 -383 4 -5 80 57 168 138 89 80 168 146
176 146 20 0 85 -70 85 -92 0 -9 -37 -50 -81 -91 l-81 -74 738 -813 c407 -447
741 -822 743 -834 2 -15 -15 -37 -65 -82 l-68 -62 101 -110 c56 -60 109 -121
118 -135 20 -31 11 -53 -35 -89 l-31 -24 331 -364 c182 -201 325 -367 319
-369 -6 -2 -40 0 -75 4 l-65 7 -290 319 c-160 175 -295 319 -301 319 -6 0 -26
-13 -45 -30 -18 -16 -40 -30 -48 -30 -7 0 -64 55 -126 123 -61 67 -116 124
-121 125 -4 2 -36 -22 -69 -53 -45 -41 -68 -55 -85 -53 -16 2 -233 234 -745
798 -396 437 -729 803 -738 813 -17 18 -21 16 -89 -47 -108 -99 -115 -101
-167 -38 -23 27 -26 38 -19 57 5 12 78 84 161 160 l153 138 -38 41 c-20 23
-99 110 -176 194 l-138 152 -27 -19 c-14 -11 -42 -35 -60 -55 -46 -48 -79 -48
-115 -2 -14 19 -26 44 -26 55 0 13 82 95 253 250 276 252 284 257 331 200z"/>
<path d="M2272 3933 l-183 -166 39 -41 c21 -23 195 -213 386 -424 l347 -382
177 166 c97 91 177 169 177 174 0 8 -742 833 -754 837 -3 2 -88 -72 -189 -164z
m254 6 c19 -21 19 -22 -56 -91 -174 -161 -186 -169 -203 -150 -8 9 -17 22 -19
27 -3 11 236 235 250 235 5 0 17 -10 28 -21z m226 -253 l18 -24 -108 -99
c-161 -148 -145 -137 -171 -109 l-22 24 127 116 c69 64 129 116 133 116 3 0
14 -11 23 -24z m246 -276 c-2 -3 -59 -57 -126 -119 l-124 -113 -24 23 -25 23
33 32 c18 18 76 71 128 118 l95 85 23 -21 c12 -12 21 -25 20 -28z"/>
</g>
</svg>
